<?xml version="1.0" standalone="no"?><!DOCTYPE svg PUBLIC "-//W3C//DTD SVG 1.1//EN" "http://www.w3.org/Graphics/SVG/1.1/DTD/svg11.dtd"><svg t="1573456307362" class="icon" viewBox="0 0 1024 1024" version="1.1" xmlns="http://www.w3.org/2000/svg" p-id="3568" xmlns:xlink="http://www.w3.org/1999/xlink" width="200" height="200"><defs><style type="text/css"></style></defs><path d="M934.62528 403.61984l-183.82848-225.28a82.90304 82.90304 0 0 0-64.88064-30.63808h-11.71456a83.88608 83.88608 0 0 0-75.69408 47.75936 103.66976 103.66976 0 0 1-89.21088 60.37504c-37.84704-1.80224-72.99072-25.23136-89.21088-60.37504a83.88608 83.88608 0 0 0-75.69408-47.75936h-10.81344a82.90304 82.90304 0 0 0-64.88064 30.63808l-182.92736 225.28a84.52096 84.52096 0 0 0-18.0224 66.68288c3.60448 23.42912 18.0224 44.15488 37.84704 57.67168l111.73888 70.28736v239.69792c0 49.5616 40.5504 90.112 90.112 90.112h394.69056c49.5616 0 90.112-40.5504 90.112-90.112V604.5696l122.55232-77.49632a83.08736 83.08736 0 0 0 37.84704-57.67168 83.39456 83.39456 0 0 0-18.0224-65.78176z m-591.13472-167.60832a16.0768 16.0768 0 0 1 22.528 8.11008c27.93472 56.77056 84.70528 91.91424 148.6848 91.91424 63.0784 0 119.84896-35.14368 148.6848-91.91424 4.5056-8.11008 14.41792-11.71456 22.528-8.11008 8.11008 4.5056 11.71456 14.41792 8.11008 22.528-34.24256 68.48512-102.72768 110.83776-178.42176 110.83776-76.5952 0-145.08032-42.35264-178.42176-110.83776a15.48288 15.48288 0 0 1 6.30784-22.528z m357.74464 603.7504H308.34688a17.1008 17.1008 0 1 1 0-34.24256H701.2352a17.1008 17.1008 0 1 1 0 34.24256z" p-id="3569"></path></svg>