<?xml version="1.0" standalone="no"?><!DOCTYPE svg PUBLIC "-//W3C//DTD SVG 1.1//EN" "http://www.w3.org/Graphics/SVG/1.1/DTD/svg11.dtd"><svg t="1573474315980" class="icon" viewBox="0 0 1024 1024" version="1.1" xmlns="http://www.w3.org/2000/svg" p-id="1334" xmlns:xlink="http://www.w3.org/1999/xlink" width="200" height="200"><defs><style type="text/css"></style></defs><path d="M814.7 800.8H207.5c-15.3 0-28.9-9.9-33.5-24.5L113.5 587 68 444.5c-10.6-33.2 1.7-68.6 30.6-88.1 28.9-19.5 66.3-17.6 93.1 4.7l114.5 95.3 133-296.5c12.7-28.4 39.8-45.9 70.9-45.9h0.8c31.3 0.3 58.5 18.4 70.8 47.2l126 295.4L833 355.9c26.9-21.6 64.2-23 92.7-3.5 28.5 19.6 40.6 54.8 30.1 87.7L848.2 776.3c-4.7 14.6-18.2 24.5-33.5 24.5zM768.6 909.9H253.5c-19.4 0-35.2-15.8-35.2-35.2s15.8-35.2 35.2-35.2h515.1c19.4 0 35.2 15.8 35.2 35.2s-15.7 35.2-35.2 35.2z" p-id="1335"></path></svg>