<?xml version="1.0" standalone="no"?><!DOCTYPE svg PUBLIC "-//W3C//DTD SVG 1.1//EN" "http://www.w3.org/Graphics/SVG/1.1/DTD/svg11.dtd"><svg t="1573474329442" class="icon" viewBox="0 0 1024 1024" version="1.1" xmlns="http://www.w3.org/2000/svg" p-id="1466" xmlns:xlink="http://www.w3.org/1999/xlink" width="200" height="200"><defs><style type="text/css"></style></defs><path d="M953.925632 350.140416l-9.191424-200.597504c-2.3552-51.720192-43.74528-93.145088-95.531008-95.488l-200.538112-9.17504c-28.172288-1.28-55.517184 9.32864-75.423744 29.233152L105.05216 542.296064c-39.0656 39.135232-39.0656 102.531072 0 141.66016l209.764352 209.764352c39.118848 39.104512 102.549504 39.104512 141.668352 0l468.191232-468.185088C944.603136 405.643264 955.203584 378.261504 953.925632 350.140416zM461.686784 686.983168c-16.582656 16.611328-37.296128 28.684288-50.008064 32.344064l-20.494336-33.859584c13.359104-4.296704 31.444992-13.38368 45.45536-27.392 15.1552-15.087616 16.887808-29.335552 7.374848-38.836224-9.056256-9.05216-21.139456-7.323648-44.863488 3.903488-32.555008 15.755264-61.671424 18.112512-82.817024-3.028992-24.805376-24.807424-23.095296-64.483328 11.196416-98.7648 16.429056-16.408576 31.934464-25.02656 44.455936-29.771776l19.16928 33.855488c-8.597504 3.0208-23.074816 9.283584-37.30432 23.5008-14.229504 14.252032-14.637056 27.611136-7.071744 35.18464 9.211904 9.248768 21.526528 5.14048 47.4112-6.508544 35.18464-16.160768 60.612608-14.852096 81.104896 5.632C499.673088 607.627264 501.598208 647.084032 461.686784 686.983168zM616.372224 527.935488l-48.498688-26.058752-41.611264 41.61536 26.92096 47.679488-34.041856 34.076672-100.907008-189.835264 43.106304-43.124736 190.404608 100.29056L616.372224 527.935488zM660.48 483.909632l-145.381376-145.389568 32.985088-32.9728 117.79072 117.766144 57.79456-57.81504 27.629568 27.613184L660.48 483.909632zM759.945216 384.39936l-145.338368-145.352704 89.704448-89.73312 26.94144 26.955776-56.705024 56.73984 30.195712 30.18752 53.485568-53.485568 26.732544 26.761216-53.46304 53.456896 34.484224 34.527232 59.717632-59.727872 27.006976 26.949632L759.945216 384.39936z" p-id="1467"></path><path d="M506.394624 514.156544l32.145408-32.141312-39.899136-21.794816c-11.19232-6.029312-24.559616-14.200832-35.375104-20.692992l-0.438272 0.448512c6.508544 10.774528 15.321088 23.934976 21.362688 34.721792L506.394624 514.156544z" p-id="1468"></path></svg>