<?xml version="1.0" standalone="no"?><!DOCTYPE svg PUBLIC "-//W3C//DTD SVG 1.1//EN" "http://www.w3.org/Graphics/SVG/1.1/DTD/svg11.dtd"><svg t="1573456270732" class="icon" viewBox="0 0 1024 1024" version="1.1" xmlns="http://www.w3.org/2000/svg" p-id="3301" xmlns:xlink="http://www.w3.org/1999/xlink" width="200" height="200"><defs><style type="text/css"></style></defs><path d="M309.95456 780.40576h-207.0016a29.568 29.568 0 0 1-29.568-29.56288v-207.00672c32.66048 0.01536 59.15136-26.45504 59.16672-59.11552 0.01024-32.6656-26.45504-59.15648-59.12064-59.16672h-0.04608V218.55744a29.56288 29.56288 0 0 1 29.568-29.568h206.99648l0.00512 591.41632z" fill="#575757" p-id="3302"></path><path d="M552.82176 372.69504m-48 0a48 48 0 1 0 96 0 48 48 0 1 0-96 0Z" fill="#575757" p-id="3303"></path><path d="M930.93888 248.12544a29.56288 29.56288 0 0 1 29.568-29.568 29.568 29.568 0 0 0-29.568-29.568H369.09056v591.4112h561.85344a29.568 29.568 0 0 0 29.56288-29.568 29.56288 29.56288 0 0 1-29.568-29.57824 29.568 29.568 0 0 1 29.568-29.568v-59.14112a29.568 29.568 0 1 1 0-59.136v-59.14112a29.568 29.568 0 1 1 0-59.136V395.9808a29.568 29.568 0 1 1 0-59.14112V277.69856a29.568 29.568 0 0 1-29.568-29.57312z m-378.11712 44.5696c44.20096 0 80 35.79904 80 80s-35.79904 80-80 80c-44.20608 0-80-35.79904-80-80s35.79392-80 80-80z m224 384c-44.20608 0-80-35.79904-80-80s35.79392-80 80-80c44.20096 0 80 35.79904 80 80s-35.80928 80-80 80z m75.38688-356.59776l-352 352c-3.2 3.2-7.19872 4.59264-11.40224 4.59264a16.5888 16.5888 0 0 1-11.40224-4.59264 16.05632 16.05632 0 0 1 0-22.59968l352-352a16.05632 16.05632 0 0 1 22.59968 0c6.41024 6.1952 6.41024 16.19968 0.2048 22.59968z" fill="#575757" p-id="3304"></path><path d="M776.82176 596.69504m-48 0a48 48 0 1 0 96 0 48 48 0 1 0-96 0Z" fill="#575757" p-id="3305"></path></svg>