<?xml version="1.0" standalone="no"?><!DOCTYPE svg PUBLIC "-//W3C//DTD SVG 1.1//EN" "http://www.w3.org/Graphics/SVG/1.1/DTD/svg11.dtd"><svg t="1573456374234" class="icon" viewBox="0 0 1024 1024" version="1.1" xmlns="http://www.w3.org/2000/svg" p-id="5291" xmlns:xlink="http://www.w3.org/1999/xlink" width="200" height="200"><defs><style type="text/css"></style></defs><path d="M54.893568 842.789888" p-id="5292"></path><path d="M633.133056 272.344064c27.025408-60.476416 68.26496-122.789888 107.665408-122.789888 3.208192 0 7.41376 0.175104 11.459584 1.373184 16.11776 4.763648 35.743744 15.054848 32.526336 38.946816C780.670976 220.516352 734.388224 266.392576 633.133056 272.344064z" p-id="5293"></path><path d="M561.649664 493.19424l313.857024 0 0 465.514496-313.857024 0 0-465.514496Z" p-id="5294"></path><path d="M252.37504 191.70304c-2.543616-22.87616 15.577088-34.818048 32.531456-38.483968 3.66592-1.379328 7.330816-1.82784 11.455488-1.82784 38.941696 0 79.720448 63.22176 108.12928 123.24864C302.7712 268.679168 255.788032 222.434304 252.37504 191.70304z" p-id="5295"></path><path d="M148.818944 493.19424l313.398272 0 0 465.514496-313.398272 0 0-465.514496Z" p-id="5296"></path><path d="M952.484864 458.827776 952.484864 318.626816l-167.70048 0c53.147648-31.161344 82.0224-74.227712 87.975936-116.840448 8.708096-62.313472-29.708288-115.730432-95.76448-135.161856-11.838464-3.479552-23.820288-5.044224-36.1984-5.044224-114.538496 0-181.438464 151.666688-205.270016 215.809024l-34.354176 0c-26.121216-65.063936-90.264576-213.971968-204.813312-213.971968-12.376064 0-24.788992 2.118656-36.197376 5.492736-66.02752 19.540992-104.23808 72.824832-95.762432 135.168 5.727232 42.116096 34.827264 83.387392 84.765696 114.547712L70.934528 318.625792l0 140.201984L952.484864 458.827776z" p-id="5297"></path><path d="M968.984576 842.789888" p-id="5298"></path></svg>