<?xml version="1.0" standalone="no"?><!DOCTYPE svg PUBLIC "-//W3C//DTD SVG 1.1//EN" "http://www.w3.org/Graphics/SVG/1.1/DTD/svg11.dtd"><svg t="1573456325582" class="icon" viewBox="0 0 1024 1024" version="1.1" xmlns="http://www.w3.org/2000/svg" p-id="3965" xmlns:xlink="http://www.w3.org/1999/xlink" width="200" height="200"><defs><style type="text/css"></style></defs><path d="M511.8 119.6c15.4 0 30.3 12.4 40.1 22.9 18 19.3 35.4 49.2 50.1 86.5 15.9 40.1 28.4 87.2 37.3 139.9 7 41.9 11.4 85.8 13.1 131-59.6 0-89.4-0.1-93-0.3h-0.2c-3.3-0.2-4.9-0.3-47.4-0.3-43.9 0-50.2 0.1-57.5 0.2-7.7 0.1-16.9 0.3-83 0.3 1.7-45.2 6.1-89.1 13.1-131 8.8-52.7 21.4-99.8 37.2-139.9 14.8-37.3 32.1-67.2 50.1-86.5 9.8-10.4 24.7-22.8 40.1-22.8m0-44c-102.4 0-185.4 209.6-185.4 468.2 187.4 0 83-0.6 185.4-0.6s-39.4 0.6 185.4 0.6c0-258.6-83-468.2-185.4-468.2z" p-id="3966"></path><path d="M948.8 818.2L834.3 535.3c-8.5-21-28.9-34.7-51.5-34.7H240.7c-22.6 0-42.9 13.7-51.5 34.6L75.3 813.7c-7.5 18.4-4.7 39.4 7.5 55.1l45 58.2c10.5 13.6 26.8 21.6 44 21.6H858c17.8 0 34.4-8.5 44.9-22.8l39.3-53.8c11.3-15.7 13.8-36 6.6-53.8z m-321.4-173H396.1c-12.2 0-22-9.8-22-22s9.8-22 22-22h231.3c12.2 0 22 9.8 22 22s-9.8 22-22 22z" p-id="3967"></path></svg>