<?xml version="1.0" encoding="utf-8"?>
<!-- Generator: Adobe Illustrator 23.0.3, SVG Export Plug-In . SVG Version: 6.00 Build 0)  -->
<svg version="1.0" id="图层_1" xmlns="http://www.w3.org/2000/svg" xmlns:xlink="http://www.w3.org/1999/xlink" x="0px" y="0px"
	 viewBox="0 0 200 200" style="enable-background:new 0 0 200 200;" xml:space="preserve">
<polygon points="107.7,62.9 107.7,62.9 107.7,62.9 "/>
<path d="M178.5,59.9c-9.1,0-17.2,13.2-34.4,13.2c-11.4,0-23.4-4.3-36.1-12.9l-0.4-0.3l-92,42.6c-0.1,0.1-0.2,0.1-0.3,0.2
	c-7.3,4.1-11,10.5-11,19.2c0,8.7,5.3,14.8,15.9,18.2l0.3,0.1h164.8c4.6,0,8.4-3.7,8.5-8.3V79.2C193.7,76.1,187.6,59.9,178.5,59.9z
	 M183,91.8c-8.1,1.4-25.3,6-30.5,20.3c-0.8,2.2,0.9,4.4,3.1,4.4c7,0,20.8,0,27.6,0c2.2,0,4,1.8,4,4v0.2c0,2.3-1.9,4.2-4.2,4.2H14.6
	c-2.3,0-4.2-1.9-4.2-4.2v0c0-2.3,1.9-4.2,4.2-4.2l82.9,0c3.1,0,5.2-3.2,3.9-6c-0.9-1.8-1.9-3.4-3-4.6c-2.7-3-6.3-4.5-11.1-4.6H63.9
	c-0.8,0-1.6-0.2-2.3-0.7c-1.5-1-4.9-7.4-6.4-10.4C55.1,90,55,89.8,55,89.6c-0.2-1-0.5-3.5,2.2-4.8c4.3-2,6.2,1.9,6.2,1.9
	s1.5,2.7,2.6,4.5c0.6,1,1.7,1.7,2.9,1.7l18.4,0l0.4,0c12.1,0.2,20,7.3,23.7,20.4c0.5,1.8,2.1,3.1,4.1,3.1l23.5,0
	c1.8,0,3.4-1.1,4-2.8c6.9-19.3,20.7-29.7,40.9-30.8c0,0,5.8-0.2,5.8,4.4C189.5,91.2,183,91.8,183,91.8z"/>
</svg>
