<?xml version="1.0" standalone="no"?><!DOCTYPE svg PUBLIC "-//W3C//DTD SVG 1.1//EN" "http://www.w3.org/Graphics/SVG/1.1/DTD/svg11.dtd"><svg t="1573456346161" class="icon" viewBox="0 0 1025 1024" version="1.1" xmlns="http://www.w3.org/2000/svg" p-id="4489" xmlns:xlink="http://www.w3.org/1999/xlink" width="200.1953125" height="200"><defs><style type="text/css"></style></defs><path d="M864.711111 558.08c25.6-51.2 40.391111-109.226667 40.391111-170.666667C905.102222 173.511111 728.746667 0 512 0 294.684444 0 118.897778 173.511111 118.897778 387.413333c0 61.44 14.791111 118.897778 40.391111 170.666667L0 830.008889c0 0 101.262222 20.48 203.662222 41.528889 68.266667 76.231111 136.533333 152.462222 136.533333 152.462222l146.773333-250.311111C495.502222 773.688889 503.466667 774.826667 512 774.826667c8.533333 0 16.497778-0.568889 25.031111-1.137778l146.773333 250.311111c0 0 68.266667-76.231111 136.533333-152.462222 102.4-21.048889 203.662222-41.528889 203.662222-41.528889L864.711111 558.08zM512 704.284444c-176.355556 0-319.715556-143.36-319.715556-320.284444C192.284444 207.075556 335.644444 63.715556 512 63.715556c176.355556 0 319.715556 143.36 319.715556 320.284444C831.715556 560.924444 688.355556 704.284444 512 704.284444zM256.568889 384a4.49 4.5 0 1 0 510.862222 0 4.49 4.5 0 1 0-510.862222 0Z" p-id="4490"></path></svg>