<?xml version="1.0" standalone="no"?><!DOCTYPE svg PUBLIC "-//W3C//DTD SVG 1.1//EN" "http://www.w3.org/Graphics/SVG/1.1/DTD/svg11.dtd"><svg t="1573456350642" class="icon" viewBox="0 0 1024 1024" version="1.1" xmlns="http://www.w3.org/2000/svg" p-id="4621" xmlns:xlink="http://www.w3.org/1999/xlink" width="200" height="200"><defs><style type="text/css"></style></defs><path d="M387.016962 261.154905l242.128573 0c74.925457 0 132.079154-162.481581 132.079154-162.481581 0-48.660256-4.871961-85.47472-88.069825-88.068801-83.172281-2.619664-103.098099 58.158584-162.871461 58.158584-61.266365 0-91.911316-47.780213-167.301354-58.158584-75.365478-10.426467-88.044242 39.408545-88.044242 88.068801C254.937808 98.674347 312.066947 261.154905 387.016962 261.154905zM642.362558 311.381843l-255.345596 0c-282.762015 0-352.203574 555.509956-352.203574 555.509956 0 72.966848 59.137889 146.252968 132.079154 146.252968l695.569876 0c72.942289 0 132.078131-73.28612 132.078131-146.252968C994.541573 866.892823 925.076478 311.381843 642.362558 311.381843zM671.344636 738.312352c17.036002 0 30.842449 13.829983 30.842449 30.867008 0 17.034978-13.805424 30.864962-30.842449 30.864962l-125.201513 0 0 80.97115c0 17.034978-13.805424 30.867008-30.816866 30.867008-17.036002 0-30.840402-13.83203-30.840402-30.867008L484.485855 800.044322l-126.009925 0c-17.034978 0-30.840402-13.829983-30.840402-30.864962 0-17.037025 13.805424-30.867008 30.840402-30.867008l126.009925 0 0-39.161928-126.009925 0c-17.034978 0-30.840402-13.806447-30.840402-30.842449 0-17.036002 13.805424-30.890544 30.840402-30.890544l85.181031 0-87.212294-154.989957c-8.518001-14.784728-3.451612-33.631982 11.283997-42.148959 14.759145-8.519024 33.607422-3.476171 42.125423 11.258415l105.007589 185.880501 5.310959 0 105.007589-185.880501c8.516977-14.734586 27.365254-19.778462 42.100864-11.258415 14.760169 8.516977 19.827581 27.364231 11.308557 42.148959l-87.212294 154.989957 79.967286 0c17.036002 0 30.842449 13.853519 30.842449 30.890544 0 17.034978-13.805424 30.842449-30.842449 30.842449l-125.201513 0 0 39.161928L671.344636 738.312352z" p-id="4622"></path></svg>