<?xml version="1.0" standalone="no"?><!DOCTYPE svg PUBLIC "-//W3C//DTD SVG 1.1//EN" "http://www.w3.org/Graphics/SVG/1.1/DTD/svg11.dtd"><svg t="1573456321373" class="icon" viewBox="0 0 1024 1024" version="1.1" xmlns="http://www.w3.org/2000/svg" p-id="3832" xmlns:xlink="http://www.w3.org/1999/xlink" width="200" height="200"><defs><style type="text/css"></style></defs><path d="M613.4 108c9.5 32.3 22.6 65.8 38.5 98.2 11.4 23.4 23.9 45.6 37.2 66.2L534.9 197l-19.2-9.4-19.2 9.2-159.6 76.7c13.6-21 26.3-43.5 38-67.4 15.9-32.4 28.9-65.8 38.5-98.2h200M638.8 64H387.6c-3.3 0-6.4 1.1-9 3-8.5 37.3-22.9 78.3-43.2 119.8-26.7 54.5-58.9 100.7-91 133.3l-12.8 24.4c-5.2 10 2 22 13.3 22l270.6-130 265.9 130c11.3 0 18.6-12 13.3-22l-13.2-25.3c-31.8-32.6-63.7-78.4-90.2-132.5-20.3-41.4-34.7-82.3-43.2-119.5-2.6-2-5.9-3.2-9.3-3.2zM725.5 701.2c-27.1 33-52.3 72.6-73.7 116.4-15.9 32.4-28.9 65.8-38.5 98.2h-200c-9.5-32.3-22.6-65.8-38.5-98.2-21.4-43.8-46.5-83.4-73.6-116.4h424.3m55.9-44H244.9c-11.3 0-18.6 12-13.3 22l12.8 24.4c32.1 32.6 64.3 78.8 91 133.3 20.3 41.5 34.8 82.6 43.2 119.8 2.6 1.9 5.7 3 9 3h251.1c3.5 0 6.8-1.2 9.4-3.3 8.5-37.2 22.9-78.1 43.2-119.5 26.5-54 58.4-99.9 90.2-132.5l13.2-25.3c5.3-9.9-2-21.9-13.3-21.9z" p-id="3833"></path><path d="M512.7 183.7c-181.7 0-329 147.3-329 329s147.3 329 329 329 329-147.3 329-329-147.3-329-329-329z m137.4 369.8h-0.2l-157-1.7h-1.1c-0.2 0-0.5 0-0.7-0.1h-0.4c-0.2 0-0.4-0.1-0.6-0.1-0.2 0-0.3 0-0.5-0.1-0.2 0-0.4-0.1-0.6-0.1-0.2 0-0.4-0.1-0.5-0.1-0.2 0-0.4-0.1-0.5-0.1-0.2 0-0.4-0.1-0.5-0.1-0.2 0-0.3-0.1-0.5-0.1-0.2-0.1-0.4-0.1-0.6-0.2-0.1 0-0.3-0.1-0.4-0.2-0.2-0.1-0.4-0.1-0.6-0.2-0.1-0.1-0.3-0.1-0.4-0.2-0.2-0.1-0.4-0.2-0.6-0.2-0.1-0.1-0.3-0.1-0.4-0.2l-0.6-0.3c-0.1-0.1-0.2-0.1-0.4-0.2l-0.6-0.3c-0.1-0.1-0.2-0.1-0.4-0.2l-0.6-0.3c-0.1-0.1-0.2-0.1-0.3-0.2-0.2-0.1-0.4-0.2-0.6-0.4-0.1-0.1-0.2-0.2-0.3-0.2-0.2-0.1-0.4-0.3-0.5-0.4l-0.3-0.3c-0.2-0.1-0.3-0.3-0.5-0.4l-0.3-0.3c-0.2-0.1-0.3-0.3-0.5-0.4l-0.3-0.3-0.4-0.4-0.3-0.3-0.4-0.4c-0.1-0.1-0.2-0.2-0.3-0.4-0.1-0.1-0.2-0.3-0.4-0.4-0.1-0.1-0.2-0.3-0.3-0.4-0.1-0.1-0.2-0.3-0.3-0.4-0.1-0.1-0.2-0.3-0.3-0.4-0.1-0.2-0.2-0.3-0.3-0.5-0.1-0.1-0.2-0.3-0.3-0.5-0.1-0.1-0.2-0.3-0.3-0.4-0.1-0.2-0.2-0.3-0.3-0.5-0.1-0.1-0.2-0.3-0.2-0.4-0.1-0.2-0.2-0.4-0.3-0.5-0.1-0.1-0.1-0.3-0.2-0.4l-0.3-0.6c-0.1-0.1-0.1-0.3-0.2-0.4-0.1-0.2-0.2-0.4-0.2-0.6 0-0.1-0.1-0.3-0.1-0.4-0.1-0.2-0.1-0.4-0.2-0.7 0-0.1-0.1-0.2-0.1-0.4-0.1-0.2-0.1-0.5-0.2-0.7 0-0.1-0.1-0.2-0.1-0.3-0.1-0.2-0.1-0.5-0.2-0.8 0-0.1 0-0.2-0.1-0.3 0-0.3-0.1-0.5-0.1-0.8 0-0.1 0-0.2-0.1-0.3 0-0.3-0.1-0.5-0.1-0.8v-0.3c0-0.3 0-0.6-0.1-0.8v-0.3-0.8-0.3l1.7-184.9c0.1-12.1 9.9-21.8 22-21.8h0.2c12.2 0.1 21.9 10.1 21.8 22.2l-1.5 163 135 1.5c12.1 0.1 21.9 10.1 21.8 22.2-0.1 11.9-9.9 21.6-22 21.6z" p-id="3834"></path></svg>