<?xml version="1.0" encoding="utf-8"?>
<!-- Generator: Adobe Illustrator 23.0.3, SVG Export Plug-In . SVG Version: 6.00 Build 0)  -->
<svg version="1.1" id="图层_1" xmlns="http://www.w3.org/2000/svg" xmlns:xlink="http://www.w3.org/1999/xlink" x="0px" y="0px"
	 viewBox="0 0 200 200" style="enable-background:new 0 0 200 200;" xml:space="preserve">
<g>
	<path d="M162.9,156.9l-6.5-4.9c-7.3-5.5-12.8-14.7-13.7-23.8c-0.9-9.2,1.8-19.2,7.3-26.6l3.7-4.6c4.6-5.5,6.4-11.9,6.4-18.3
		c0-10.1-4.6-19.2-13.7-24.7l-12.1-8c-1.1-0.7-1.7-1.9-1.7-3.2V6.5c0-1.4-1.1-2.5-2.5-2.5h-13.3c-1.4,0-2.5,1.1-2.5,2.5v30
		c0,2.1-1.7,3.8-3.8,3.8h-20c-2.1,0-3.8-1.7-3.8-3.8v-30c0-1.4-1.1-2.5-2.5-2.5H70.9c-1.4,0-2.5,1.1-2.5,2.5v36.3
		c0,1.3-0.6,2.4-1.7,3.2l-12.1,8C45.5,59.5,41,68.7,41,78.7c0,6.4,2.7,13.7,6.4,18.3l3.7,4.6c6.4,7.3,8.2,16.5,7.3,26.6
		c-0.9,9.2-6.4,18.3-13.7,23.8l-6.5,4.9c-2.2,1.6-2,4.9,0.3,6.3l53.8,32.3c0.6,0.4,1.3,0.5,1.9,0.5h12.6c0.7,0,1.4-0.2,1.9-0.5
		l53.8-32.3C164.8,161.8,165,158.5,162.9,156.9z M97.6,101.2c-4.8,6.1-11.9,9.5-19.6,9.5s-14.8-3.5-19.6-9.5
		c-0.7-0.9-0.5-2.1,0.3-2.8c0.9-0.7,2.1-0.5,2.8,0.3c4,5.1,10,8,16.4,8s12.4-2.9,16.4-8c0.7-0.9,1.9-1,2.8-0.3
		C98.2,99.1,98.3,100.4,97.6,101.2z M123.1,110.8c-7.7,0-14.8-3.5-19.6-9.5c-0.7-0.9-0.5-2.1,0.3-2.8c0.9-0.7,2.1-0.5,2.8,0.3
		c4,5.1,10,8,16.4,8c6.5,0,12.4-2.9,16.4-8c0.7-0.9,1.9-1,2.8-0.3c0.9,0.7,1,1.9,0.3,2.8C137.9,107.3,130.8,110.8,123.1,110.8z"/>
</g>
</svg>
