<?xml version="1.0" standalone="no"?><!DOCTYPE svg PUBLIC "-//W3C//DTD SVG 1.1//EN" "http://www.w3.org/Graphics/SVG/1.1/DTD/svg11.dtd"><svg t="1573456336185" class="icon" viewBox="0 0 1024 1024" version="1.1" xmlns="http://www.w3.org/2000/svg" p-id="4231" xmlns:xlink="http://www.w3.org/1999/xlink" width="200" height="200"><defs><style type="text/css"></style></defs><path d="M900.3614815999999 584.8177781333334c-48.54518506666667-24.272593066666666-63.10874026666667-43.690666666666665-63.108741333333334-82.52681493333333 0-36.40888853333333 14.5635552-55.8269632 63.108741333333334-82.52681493333333 26.699851733333333-16.990814933333333 29.127111466666666-31.554370133333336 29.127111466666666-55.8269632v-138.35377813333335c0-43.690666666666665-36.40888853333333-80.0995552-80.09955626666667-80.0995552H160.04740693333332c-43.690666666666665 0-80.0995552 36.40888853333333-80.0995552 80.0995552v138.35377813333335c0 21.845333333333333 2.427259733333333 41.26340693333333 29.127111466666666 55.8269632 19.4180736 9.7090368 63.10874026666667 33.981629866666665 63.10874026666667 82.52681493333333 0 53.399703466666665-31.554370133333336 70.3905184-60.6814816 80.0995552h-2.427258666666667c-26.699851733333333 16.990814933333333-29.127111466666666 43.690666666666665-29.127111466666666 55.8269632v138.35377813333335c0 43.690666666666665 36.40888853333333 80.0995552 80.0995552 80.0995552h689.3416298666667c43.690666666666665 0 80.0995552-36.40888853333333 80.09955626666667-80.0995552v-138.35377813333335c0-26.699851733333333-9.7090368-36.40888853333333-29.127111466666666-53.399703466666665z m-266.9985184-48.54518506666667c14.5635552 0 26.699851733333333 12.136296533333333 26.699851733333333 26.699851733333333s-12.136296533333333 26.699851733333333-26.699851733333333 26.699851733333333h-101.9448896v101.94488853333334c0 14.5635552-12.136296533333333 26.699851733333333-26.699851733333333 26.699851733333333s-26.699851733333333-12.136296533333333-26.699851733333333-26.699851733333333v-101.94488853333334h-101.94488853333334c-14.5635552 0-26.699851733333333-12.136296533333333-26.699851733333333-26.699851733333333s12.136296533333333-26.699851733333333 26.699851733333333-26.699851733333333h101.94488853333334v-63.108741333333334h-109.22666666666667c-14.5635552 0-26.699851733333333-12.136296533333333-26.699851733333333-26.699851733333333s12.136296533333333-26.699851733333333 26.699851733333333-26.699851733333333h80.09955626666667l-84.95407466666667-84.95407466666667c-9.7090368-9.7090368-9.7090368-26.699851733333333 0-36.40888853333333 9.7090368-9.7090368 26.699851733333333-9.7090368 36.40888853333333 0l104.37214826666667 104.37214826666667 104.37214826666667-104.37214826666667c9.7090368-9.7090368 26.699851733333333-9.7090368 36.408889599999995 0 9.7090368 9.7090368 9.7090368 26.699851733333333 0 36.40888853333333l-84.95407466666667 84.95407466666667h77.67229653333334c14.5635552 0 26.699851733333333 12.136296533333333 26.699851733333333 26.699851733333333s-12.136296533333333 26.699851733333333-26.699851733333333 26.699851733333333h-109.22666666666667v63.108741333333334h104.37214826666667z" fill="" p-id="4232"></path></svg>