<?xml version="1.0" standalone="no"?><!DOCTYPE svg PUBLIC "-//W3C//DTD SVG 1.1//EN" "http://www.w3.org/Graphics/SVG/1.1/DTD/svg11.dtd"><svg t="1573456360803" class="icon" viewBox="0 0 1024 1024" version="1.1" xmlns="http://www.w3.org/2000/svg" p-id="4891" xmlns:xlink="http://www.w3.org/1999/xlink" width="200" height="200"><defs><style type="text/css"></style></defs><path d="M75.899132 376.435465l0 117.616768c30.988782 0 56.110949 25.121144 56.110949 56.110949 0 30.988782-25.122167 56.110949-56.110949 56.110949L75.899132 763.757884c0 23.11751 18.739806 41.857317 41.856293 41.857317l120.57003 0L238.325455 334.578148 117.756449 334.578148C94.638939 334.578148 75.899132 353.317954 75.899132 376.435465z" p-id="4892"></path><path d="M807.312354 350.327854c0-7.150864-7.892761-13.926174-10.191106-15.749706L297.390689 334.578148l0 471.037053 495.909533 0c2.437515-3.083222 7.612375-10.787694 7.612375-20.676925 0-30.634718-30.514991-19.200294-30.514991-52.173267 0-33.966603 36.914748-19.196201 36.914748-55.617715 0-31.012318-36.914748-18.212804-36.914748-53.648874 0-34.95 36.914748-17.717524 36.914748-53.649897 0-35.932374-36.914748-21.657252-36.914748-57.585533 0-36.425607 36.914748-24.610514 36.914748-58.080813 0-33.469276-36.914748-23.62507-36.914748-50.204425S807.312354 375.430578 807.312354 350.327854zM615.898837 461.954187l-63.537082 79.345116 49.205679 0c4.623297 0 8.370645 3.748371 8.370645 8.371668l0 28.542056c0 4.623297-3.747347 8.371668-8.370645 8.371668l-60.288085 0 0 23.624047 60.288085 0c4.623297 0 8.370645 3.747347 8.370645 8.371668l0 28.541033c0 4.623297-3.747347 8.370645-8.370645 8.370645l-60.288085 0 0 43.265386c0 5.327332-4.318352 9.646708-9.645684 9.646708l-32.887015 0c-5.326309 0-9.644661-4.321422-9.644661-9.647731l0-43.264363-67.181075 0c-4.624321 0-8.371668-3.747347-8.371668-8.370645l0-28.541033c0-4.624321 3.747347-8.371668 8.371668-8.371668l67.181075 0 0-23.624047-67.181075 0c-4.624321 0-8.371668-3.748371-8.371668-8.371668l0-28.542056c0-4.623297 3.747347-8.371668 8.371668-8.371668l54.915727 0L413.302629 461.954187c-2.836605-3.619434-2.201132-8.854669 1.415232-11.69025l22.344914-17.513886c3.618411-2.837628 8.852622-2.204202 11.691273 1.415232l65.846684 82.229816 65.846684-82.229816c2.837628-3.619434 8.071839-4.252861 11.69025-1.415232l22.345937 17.513886C618.097922 453.099519 618.735441 458.334753 615.898837 461.954187z" p-id="4893"></path><path d="M946.112584 334.578148c0-33.470299-36.915771-23.626094-36.915771-50.205449s36.915771-28.547173 36.915771-53.649897c0-7.150864-7.892761-13.926174-10.191106-15.749706l-499.731582 0 0 75.306126 431.80861 0c2.298346 1.822508 10.18906 8.598842 10.18906 15.749706 0 25.102724-36.914748 27.071565-36.914748 53.649897s36.914748 16.73515 36.914748 50.204425-36.914748 21.654182-36.914748 58.07979c0 35.928281 36.914748 21.654182 36.914748 57.586556 0 35.931351-36.914748 18.698874-36.914748 53.648874 0 35.43607 36.914748 22.63758 36.914748 53.648874 0 35.503609-35.060517 22.384823-36.82879 53.162804l90.7427 0c2.436492-3.084245 7.611352-10.788717 7.611352-20.677948 0-30.635741-30.516014-19.200294-30.516014-52.17429 0-33.965579 36.915771-19.195178 36.915771-55.617715 0-31.011294-36.915771-18.212804-36.915771-53.647851 0-34.948977 36.915771-17.717524 36.915771-53.648874 0-35.931351-36.915771-21.658276-36.915771-57.586556C909.196813 356.23233 946.112584 368.047424 946.112584 334.578148z" p-id="4894"></path><path d="M377.126708 214.973096 256.556679 214.973096c-23.11751 0-41.856293 18.739806-41.856293 41.856293l0 33.449833 162.426323 0L377.126708 214.973096z" p-id="4895"></path></svg>