<?xml version="1.0" standalone="no"?><!DOCTYPE svg PUBLIC "-//W3C//DTD SVG 1.1//EN" "http://www.w3.org/Graphics/SVG/1.1/DTD/svg11.dtd"><svg t="1573456370124" class="icon" viewBox="0 0 1024 1024" version="1.1" xmlns="http://www.w3.org/2000/svg" p-id="5159" xmlns:xlink="http://www.w3.org/1999/xlink" width="200" height="200"><defs><style type="text/css"></style></defs><path d="M329.376171 441.08488l375.37225-1.855254L524.225951 937.955298 329.376171 441.08488 329.376171 441.08488zM372.393917 260.316817l285.957801 2.785439 50.610678 121.43677L337.807191 381.75768 372.393917 260.316817 372.393917 260.316817zM290.56626 378.054335 64.497455 274.223548l121.469516-99.190093 145.087423 82.505086L290.56626 378.054335 290.56626 378.054335zM64.497455 334.477864l214.259852 104.752786L509.04725 934.24479 64.497455 334.477864 64.497455 334.477864zM758.726799 438.299441 959.501522 324.288804 536.882202 931.469584 758.726799 438.299441 758.726799 438.299441zM754.517941 377.12108l-56.524364-127.926578 129.060401-78.790484 111.353111 102.900601L754.517941 377.12108 754.517941 377.12108zM368.177895 199.144596l-48.926316-13.906731-91.958388-56.545854 107.98234-42.647309 352.59243 0 107.138112 49.127907-102.912881 54.697763-34.588773 9.274224L368.177895 199.144596 368.177895 199.144596 368.177895 199.144596zM368.177895 199.144596" p-id="5160"></path></svg>